<svg version="1.2" xmlns="http://www.w3.org/2000/svg" viewBox="0 0 21 26" width="21" height="26">
	<title>home</title>
	<defs>
		<linearGradient id="g1" x2="1" gradientUnits="userSpaceOnUse" gradientTransform="matrix(0,18.149,-18.533,0,10.046,1.442)">
			<stop offset="0" stop-color="#4c9ee2"/>
			<stop offset="1" stop-color="#73bfff"/>
		</linearGradient>
		<linearGradient id="g2" x2="1" gradientUnits="userSpaceOnUse" gradientTransform="matrix(0,13.566,-7.583,0,10.048,6.026)">
			<stop offset="0" stop-color="#ffffff" stop-opacity="1"/>
			<stop offset="1" stop-color="#ffffff" stop-opacity=".59"/>
		</linearGradient>
	</defs>
	<style>
		.s0 { fill: url(#g1) } 
		.s1 { fill: url(#g2) } 
	</style>
	<g>
		<path fill-rule="evenodd" class="s0" d="m1 8c-0.2 0.2-0.3 0.6-0.1 0.8 0.2 0.3 0.6 0.3 0.8 0.1l0.5-0.3 0.8 10.4c0 0.4 0.3 0.6 0.6 0.6h12.8c0.3 0 0.6-0.2 0.6-0.6l0.7-10.5 0.6 0.4c0.3 0.2 0.7 0.2 0.9-0.1 0.2-0.2 0.1-0.6-0.1-0.8l-8.8-6.4c-0.2-0.2-0.5-0.2-0.7 0z"/>
		<path fill-rule="evenodd" class="s1" d="m10 6c-0.3 0-0.5 0.3-0.5 0.6 0 0.3 0.2 0.5 0.5 0.5 0.3 0 0.6-0.2 0.6-0.5 0-0.3-0.3-0.6-0.6-0.6zm2.5 3.7c0-0.8-1.2-1.5-2.6-1.5-1.4 0-2.6 0.7-2.6 1.5 0 0.9 1.2 1.6 2.6 1.6 1.4 0 2.6-0.7 2.6-1.6zm-0.3-2.1c0.3 0 0.6-0.2 0.6-0.5 0-0.3-0.3-0.5-0.6-0.5-0.3 0-0.5 0.2-0.5 0.5 0 0.3 0.2 0.5 0.5 0.5zm-4.3-1c-0.3 0-0.6 0.2-0.6 0.5 0 0.3 0.3 0.5 0.6 0.5 0.3 0 0.5-0.2 0.5-0.5 0-0.3-0.2-0.5-0.5-0.5zm2.1 5.5c-2 0-3.7 1.7-3.7 3.8v3.7h7.5v-3.7c0-2.1-1.7-3.8-3.8-3.8z"/>
	</g>
</svg>